<svg width="59" height="58" viewBox="0 0 59 58" fill="none" xmlns="http://www.w3.org/2000/svg">
<path d="M34.5955 44.7276C29.9023 42.9709 25.075 42.7007 20.65 43.9169C17.5659 44.7276 14.6159 46.3492 11.9341 48.3761L10.0568 49.9977L9.52043 50.5382L10.7272 51.6192C10.8613 51.6192 10.8613 51.7543 10.9954 51.8895C11.2636 52.1597 11.5318 52.2949 11.9341 52.5651L12.7386 53.1056L13.5432 52.43C13.6773 52.2949 13.9454 52.0246 14.2136 51.8895C16.6273 49.8625 19.3091 48.5113 22.125 47.8356C25.7454 46.8897 29.6341 47.0248 33.5227 48.5113C36.7409 49.7274 43.3114 51.2138 51.2227 47.8356L51.4909 47.7005L51.8932 47.2951C51.8932 47.16 52.0273 47.16 52.1614 47.0248C52.8318 46.2141 53.5023 45.4033 54.0386 44.4574L56.7205 40.2684L52.4295 42.7007C46.1273 46.214 40.3614 46.8897 34.5955 44.7276Z" fill="white"/>
<path d="M16.2251 30.1337C19.8455 29.1878 23.7342 29.3229 27.6228 30.8094C31.9137 32.4309 42.9092 34.7281 55.2456 23.5124L57.2569 21.4855L57.391 21.3503L57.9274 20.8098L57.6592 20.1342C57.5251 19.5937 57.2569 18.918 56.9887 18.2424L56.3183 16.3506L54.9774 17.7018C54.8433 17.9721 54.5751 18.1072 54.3069 18.3775C48.4069 24.4583 39.2887 30.6742 28.8296 26.8906C24.1364 25.134 19.3092 24.8637 14.8842 26.0799C10.5933 27.296 6.8387 29.5932 3.35234 32.8363V32.7012L1.34097 34.8632C1.34097 34.9984 1.20691 34.9984 1.07281 35.1335L0.670517 35.5389L0.804616 36.0794C0.938707 36.755 1.20688 37.4307 1.34097 38.1063L2.14553 40.2684L3.48644 38.5117C3.62053 38.2415 3.8887 38.1063 4.02279 37.8361C6.8387 35.2686 10.7273 31.6201 16.2251 30.1337Z" fill="white"/>
<path d="M3.21822 27.7014C6.30231 24.4583 9.78865 22.4314 13.5432 21.3503C17.1637 20.4044 21.0523 20.5396 24.9409 22.026C37.0091 26.4852 47.4682 19.1883 52.0273 15.2695L53.7705 13.5129L54.4409 12.9723L53.9046 12.1616C53.5023 11.7562 53.2341 11.2157 52.8319 10.6752L52.0273 9.5941L51.0887 10.54C50.9546 10.6751 50.6864 10.9454 50.5523 11.0805C44.9205 16.4857 36.2046 22.026 26.2818 18.2424C21.5887 16.4857 16.7614 16.2154 12.3364 17.4316C9.52048 18.2424 6.83865 19.5937 4.15683 21.3503L1.34091 23.6475C1.07273 23.9178 0.938637 24.0529 0.670455 24.3232L0.402297 24.5934V24.9988C0.268206 25.9447 0.26819 26.8906 0.134099 27.7014L0 31.0796L2.27956 28.6473C2.54774 28.377 2.81594 27.9717 3.21822 27.7014Z" fill="white"/>
<path d="M38.4841 53.9164L38.2159 54.7272L38.4841 53.9164C38.0818 53.7813 37.8136 53.6461 37.4114 53.511C32.7182 51.7543 27.8909 51.4841 23.4659 52.7002C22.5272 52.9705 21.5886 53.2407 20.65 53.6461L17.4318 55.1325L16.6272 55.5379L19.3091 56.4838C20.1136 56.7541 20.9181 57.0244 21.7227 57.2946L22.1249 57.4298L22.5272 57.2946C22.9295 57.1595 23.3318 56.8892 23.7341 56.8892C24.0022 56.8892 24.2704 56.7541 24.5386 56.619C27.7568 55.8082 31.2431 55.8082 34.9977 57.0243C35.4 57.1595 35.6682 57.2946 36.0704 57.4298L36.7409 57.7L37.1432 57.5649C38.0818 57.2946 39.1545 57.0244 39.9591 56.619L43.7136 55.2677L39.825 54.3218C39.4227 54.1866 38.8863 54.0515 38.4841 53.9164Z" fill="white"/>
<path d="M59 25.9447L56.9886 27.9716C56.7204 28.2419 56.4523 28.5121 56.1841 28.7824C50.6864 34.0524 41.8364 39.7278 31.9136 35.9442C27.2204 34.1875 22.3932 33.9173 17.9682 35.1335C13.8113 36.3496 10.0568 38.5117 6.70449 41.7548L4.96133 43.6466L4.42497 44.3222L4.96133 45.133C5.3636 45.6735 5.6318 46.0789 5.89998 46.6194L6.70449 47.8356L7.64315 46.6194C7.77724 46.4843 8.04541 46.214 8.1795 46.0789C11.3977 42.5655 14.8841 40.4035 18.9068 39.3224C22.5272 38.3765 26.4159 38.5117 30.3045 39.9981C33.6568 41.2142 37.1432 41.6197 40.6295 41.2143C46.7977 40.5386 52.9659 37.0253 57.525 33.1065C57.7932 32.8363 58.0613 32.7012 58.3295 32.4309L58.7318 32.0255V31.6201C58.7318 30.8093 58.8659 29.8634 58.8659 29.0527L59 25.9447Z" fill="white"/>
<path d="M8.04544 13.5129L7.64318 12.7021L8.04544 13.5129C8.84999 13.1075 9.78866 12.8372 10.5932 12.567C14.2137 11.6211 18.1023 11.7562 21.9909 13.2426C24.5387 14.1885 27.0864 14.5939 29.9023 14.5939C35.5341 14.5939 41.1659 12.567 46.3955 8.64826L48.4068 7.02669L49.0773 6.48619L47.8705 5.54027C47.4682 5.13488 46.9318 4.72951 46.3955 4.45925L45.5909 3.91875L44.9205 4.45925C44.6523 4.59438 44.5182 4.86463 44.25 4.99976C37.1432 10.4049 30.0364 11.8913 23.3318 9.3239C18.5046 7.56723 13.6773 7.16184 8.84999 8.64826C8.44772 8.78338 8.04545 8.9185 7.50908 9.05363L7.24093 9.18876L6.83863 9.59413C6.83863 9.72926 6.70456 9.72928 6.57047 9.86441C6.03411 10.6752 5.36363 11.3508 4.82726 12.1616L2.27954 16.0803L6.43637 13.9183C7.10683 13.9183 7.64317 13.648 8.04544 13.5129Z" fill="white"/>
<path d="M19.0409 4.3241L19.4432 4.45924C21.1864 5.13488 23.8682 5.81052 27.2205 5.81052C30.7069 5.81052 34.0591 4.99974 37.4114 3.64845L41.5682 1.62152L38.7523 0.675644C37.9478 0.405387 37.1432 0.135129 36.2046 0H35.8023L35.4 0.135096C34.9978 0.270225 34.5955 0.540515 34.1932 0.675644C30.1705 2.16206 26.1477 2.43232 22.2591 1.35129C21.8568 1.21616 21.4546 1.08101 21.0523 0.945877L20.65 0.81074L20.2477 0.945877C19.4432 1.21614 18.6387 1.48641 17.8341 1.8918L14.75 3.24308L17.9682 4.18896C18.2364 4.05383 18.6387 4.18897 19.0409 4.3241Z" fill="white"/>
</svg>
