<svg width="54" height="53" viewBox="0 0 54 53" fill="none" xmlns="http://www.w3.org/2000/svg">
<path d="M31.6636 40.8517C27.3682 39.2473 22.95 39.0005 18.9 40.1113C16.0773 40.8518 13.3773 42.3328 10.9227 44.1841L9.20452 45.6651L8.71362 46.1588L9.81816 47.1461C9.94089 47.1461 9.9409 47.2696 10.0636 47.393C10.3091 47.6398 10.5546 47.7632 10.9227 48.0101L11.6591 48.5038L12.3954 47.8867C12.5182 47.7632 12.7636 47.5164 13.0091 47.393C15.2182 45.5417 17.6727 44.3075 20.25 43.6904C23.5636 42.8265 27.1227 42.9499 30.6818 44.3075C33.6273 45.4183 39.6409 46.7759 46.8818 43.6904L47.1273 43.567L47.4955 43.1967C47.4955 43.0733 47.6182 43.0733 47.7409 42.9499C48.3546 42.2094 48.9682 41.4689 49.4591 40.6049L51.9137 36.7789L47.9864 39.0005C42.2182 42.2094 36.9409 42.8265 31.6636 40.8517Z" fill="white"/>
<path d="M14.8501 27.5225C18.1637 26.6585 21.7228 26.782 25.2819 28.1396C29.2092 29.6206 39.2728 31.7187 50.5637 21.4749L52.4046 19.6237L52.5274 19.5002L53.0183 19.0066L52.7728 18.3895C52.6501 17.8958 52.4046 17.2787 52.1592 16.6616L51.5455 14.9337L50.3183 16.1679C50.1955 16.4147 49.9501 16.5382 49.7046 16.785C44.3046 22.3389 35.9592 28.0162 26.3864 24.5604C22.091 22.956 17.6728 22.7091 13.6228 23.8199C9.69551 24.9307 6.25914 27.0288 3.06822 29.9909V29.8674L1.22731 31.8422C1.22731 31.9656 1.10461 31.9656 0.981882 32.089L0.613678 32.4593L0.736413 32.9529C0.85914 33.57 1.10459 34.1871 1.22731 34.8042L1.96369 36.7789L3.19096 35.1745C3.31369 34.9277 3.55913 34.8042 3.68186 34.5574C6.25914 32.2124 9.81824 28.8801 14.8501 27.5225Z" fill="white"/>
<path d="M2.94549 25.3009C5.76821 22.3389 8.9591 20.4876 12.3955 19.5002C15.7091 18.6363 19.2682 18.7597 22.8273 20.1173C33.8727 24.1901 43.4455 17.5255 47.6182 13.9463L49.2137 12.3419L49.8273 11.8482L49.3364 11.1077C48.9682 10.7375 48.7228 10.2438 48.3546 9.7501L47.6182 8.76273L46.7591 9.62668C46.6364 9.75009 46.3909 9.99693 46.2682 10.1203C41.1137 15.0571 33.1364 20.1173 24.0546 16.6616C19.7591 15.0571 15.3409 14.8103 11.2909 15.9211C8.71365 16.6616 6.2591 17.8958 3.80455 19.5002L1.22727 21.5984C0.981818 21.8452 0.859091 21.9686 0.613637 22.2155L0.368204 22.4623V22.8326C0.245477 23.6965 0.245462 24.5604 0.122735 25.3009L0 28.3864L2.08638 26.1648C2.33183 25.918 2.5773 25.5478 2.94549 25.3009Z" fill="white"/>
<path d="M35.2227 49.2443L34.9772 49.9848L35.2227 49.2443C34.8545 49.1209 34.6091 48.9974 34.2409 48.874C29.9455 47.2695 25.5272 47.0227 21.4772 48.1335C20.6181 48.3803 19.7591 48.6272 18.9 48.9974L15.9545 50.355L15.2182 50.7253L17.6727 51.5892C18.4091 51.8361 19.1454 52.0829 19.8818 52.3298L20.25 52.4532L20.6182 52.3298C20.9863 52.2063 21.3545 51.9595 21.7227 51.9595C21.9682 51.9595 22.2136 51.8361 22.4591 51.7127C25.4045 50.9721 28.5954 50.9721 32.0318 52.0829C32.4 52.2063 32.6455 52.3298 33.0136 52.4532L33.6273 52.7L33.9954 52.5766C34.8545 52.3297 35.8364 52.0829 36.5727 51.7127L40.0091 50.4785L36.45 49.6145C36.0818 49.4911 35.5909 49.3677 35.2227 49.2443Z" fill="white"/>
<path d="M54 23.6965L52.1591 25.5477C51.9136 25.7946 51.6682 26.0414 51.4227 26.2883C46.3909 31.1016 38.2909 36.2852 29.2091 32.8295C24.9136 31.225 20.4955 30.9782 16.4455 32.089C12.6409 33.1998 9.20451 35.1745 6.13633 38.1365L4.54089 39.8644L4.04999 40.4815L4.54089 41.222C4.90907 41.7157 5.15454 42.0859 5.4 42.5796L6.13633 43.6904L6.99544 42.5796C7.11816 42.4562 7.36361 42.2093 7.48634 42.0859C10.4318 38.877 13.6227 36.9023 17.3045 35.915C20.6182 35.051 24.1773 35.1744 27.7363 36.5321C30.8045 37.6428 33.9955 38.0131 37.1864 37.6429C42.8318 37.0258 48.4773 33.8169 52.65 30.2377C52.8955 29.9909 53.1409 29.8674 53.3864 29.6206L53.7546 29.2503V28.8801C53.7546 28.1396 53.8773 27.2756 53.8773 26.5351L54 23.6965Z" fill="white"/>
<path d="M7.36363 12.3419L6.99546 11.6014L7.36363 12.3419C8.09999 11.9717 8.95911 11.7248 9.69548 11.478C13.0091 10.6141 16.5682 10.7375 20.1273 12.0951C22.4591 12.959 24.7909 13.3293 27.3682 13.3293C32.5228 13.3293 37.6773 11.478 42.4637 7.89884L44.3046 6.41779L44.9182 5.92412L43.8137 5.06017C43.4455 4.68991 42.9546 4.31967 42.4637 4.07283L41.7273 3.57916L41.1137 4.07283C40.8682 4.19625 40.7455 4.44308 40.5 4.5665C33.9955 9.50327 27.4909 10.8609 21.3546 8.51593C16.9364 6.91148 12.5182 6.54122 8.1 7.89884C7.73182 8.02226 7.36363 8.14566 6.87273 8.26908L6.62729 8.39251L6.25909 8.76275C6.25909 8.88617 6.13638 8.88618 6.01366 9.0096C5.52275 9.75012 4.90909 10.3672 4.41818 11.1077L2.08636 14.6869L5.89092 12.7122C6.50456 12.7122 6.99545 12.4654 7.36363 12.3419Z" fill="white"/>
<path d="M17.4273 3.94939L17.7955 4.07282C19.3909 4.68992 21.8455 5.30701 24.9137 5.30701C28.1046 5.30701 31.1728 4.56649 34.241 3.3323L38.0455 1.48101L35.4682 0.617096C34.7319 0.370258 33.9955 0.123419 33.1364 0H32.7682L32.4 0.123389C32.0319 0.246808 31.6637 0.493677 31.2955 0.617096C27.6136 1.97471 23.9318 2.22155 20.3727 1.23419C20.0046 1.11077 19.6364 0.987332 19.2682 0.863912L18.9 0.740486L18.5318 0.863912C17.7955 1.11075 17.0591 1.3576 16.3228 1.72786L13.5 2.96206L16.4455 3.82597C16.6909 3.70255 17.0591 3.82597 17.4273 3.94939Z" fill="white"/>
</svg>
